<svg width="57" height="69" viewBox="0 0 57 69" fill="none" xmlns="http://www.w3.org/2000/svg">
<path d="M50.125 3.28125C49.5 1.4375 47.75 0.125 45.6875 0.125H11.3125C9.25 0.125 7.53125 1.4375 6.875 3.28125L0.375 22V47C0.375 48.7188 1.78125 50.125 3.5 50.125H6.625C8.34375 50.125 9.75 48.7188 9.75 47V43.875H47.25V47C47.25 48.7188 48.6562 50.125 50.375 50.125H53.5C55.2188 50.125 56.625 48.7188 56.625 47V22L50.125 3.28125ZM11.3125 34.5C8.71875 34.5 6.625 32.4062 6.625 29.8125C6.625 27.2188 8.71875 25.125 11.3125 25.125C13.9062 25.125 16 27.2188 16 29.8125C16 32.4062 13.9062 34.5 11.3125 34.5ZM45.6875 34.5C43.0938 34.5 41 32.4062 41 29.8125C41 27.2188 43.0938 25.125 45.6875 25.125C48.2812 25.125 50.375 27.2188 50.375 29.8125C50.375 32.4062 48.2812 34.5 45.6875 34.5ZM6.625 18.875L11.3125 4.8125H45.6875L50.375 18.875H6.625Z" fill="white"/>
<path d="M12.875 59.5H25.375V53.25L44.125 62.625H31.625V68.875L12.875 59.5Z" fill="white"/>
</svg>
