<svg width="51" height="44" viewBox="0 0 51 44" fill="none" xmlns="http://www.w3.org/2000/svg">
<path fill-rule="evenodd" clip-rule="evenodd" d="M16.625 34.625L24.5 26.9075C23.4762 26.8025 22.715 26.75 21.875 26.75C14.8663 26.75 0.875 30.2675 0.875 37.25V42.5H24.5L16.625 34.625ZM21.875 21.5C27.6763 21.5 32.375 16.8013 32.375 11C32.375 5.19875 27.6763 0.5 21.875 0.5C16.0737 0.5 11.375 5.19875 11.375 11C11.375 16.8013 16.0737 21.5 21.875 21.5Z" fill="#323232"/>
<path fill-rule="evenodd" clip-rule="evenodd" d="M33.6088 43.8125L24.5 34.625L28.175 30.9237L33.6088 36.3837L47.075 22.8125L50.75 26.5137L33.6088 43.8125Z" fill="#323232"/>
</svg>
