<svg width="63" height="60" viewBox="0 0 63 60" fill="none" xmlns="http://www.w3.org/2000/svg">
<path d="M10.7188 11.625C7.90625 9.62501 7.21875 5.75001 9.1875 2.90626C11.1562 0.0937596 15.0625 -0.59374 17.9062 1.37501C20.7188 3.37501 21.4063 7.25001 19.4375 10.0938C17.4375 12.9063 13.5625 13.5938 10.7188 11.625ZM44 53.375H21.9062C17.2812 53.375 13.3437 50 12.6562 45.4375L6.5 15.875H0.25L6.46875 46.375C7.65625 54 14.2187 59.625 21.9375 59.625H44V53.375ZM44.7188 40.875H29.4688L26.25 28.0625C31.1875 30.8438 36.5 32.875 42.3438 31.875V25.2188C37.25 26.1875 31.5938 24.375 27.6875 21.3125L22.5625 17.3438C21.8438 16.7813 21.0312 16.4063 20.1875 16.1563C19.1875 15.875 18.125 15.7813 17.0938 15.9688H17.0312C13.1875 16.6563 10.625 20.3125 11.2813 24.125L15.5 42.625C16.375 47.0625 20.2188 50.25 24.7188 50.25H46.125L58.0625 59.625L62.75 54.9375L44.7188 40.875Z" fill="white"/>
</svg>
