<svg width="15" height="23" viewBox="0 0 15 23" fill="none" xmlns="http://www.w3.org/2000/svg">
<path d="M13.7587 17.3777C12.6054 16.95 11.5592 16.3487 10.6436 15.6253C10.3571 15.3911 9.96017 15.3399 9.61314 15.4991L7.45616 16.8004C5.27208 14.5507 3.674 11.2384 3.37067 8.00097L5.77616 7.12251C6.12667 6.95385 6.33727 6.616 6.35582 6.24959C6.39483 5.08019 6.63042 3.89838 7.05807 2.74511C7.24582 2.2388 6.98035 1.66042 6.47404 1.47267L3.2299 0.269697C2.72358 0.0819493 2.03069 0.0809842 1.76993 0.784194C-1.46002 9.49462 3.10364 19.4206 11.8047 22.647C12.4704 22.8939 12.952 22.4005 13.1432 21.8849L14.3427 18.6501C14.5304 18.1438 14.265 17.5654 13.7587 17.3777Z" fill="#FFCD4B"/>
</svg>
