<svg width="29" height="29" viewBox="0 0 29 29" fill="none" xmlns="http://www.w3.org/2000/svg">
<rect width="29" height="29" rx="14.5" fill="url(#paint0_radial_106_71)"/>
<path d="M14.5 8.56024C16.4217 8.56024 16.6837 8.56024 17.4699 8.56024C18.1687 8.56024 18.5181 8.73494 18.7801 8.82229C19.1295 8.99699 19.3916 9.08434 19.6536 9.34639C19.9157 9.60843 20.0904 9.87048 20.1777 10.2199C20.2651 10.4819 20.3524 10.8313 20.4398 11.5301C20.4398 12.3163 20.4398 12.491 20.4398 14.5C20.4398 16.509 20.4398 16.6837 20.4398 17.4699C20.4398 18.1687 20.2651 18.5181 20.1777 18.7801C20.003 19.1295 19.9157 19.3916 19.6536 19.6536C19.3916 19.9157 19.1295 20.0904 18.7801 20.1777C18.5181 20.2651 18.1687 20.3524 17.4699 20.4398C16.6837 20.4398 16.509 20.4398 14.5 20.4398C12.491 20.4398 12.3163 20.4398 11.5301 20.4398C10.8313 20.4398 10.4819 20.2651 10.2199 20.1777C9.87048 20.003 9.60843 19.9157 9.34639 19.6536C9.08434 19.3916 8.90964 19.1295 8.82229 18.7801C8.73494 18.5181 8.64759 18.1687 8.56024 17.4699C8.56024 16.6837 8.56024 16.509 8.56024 14.5C8.56024 12.491 8.56024 12.3163 8.56024 11.5301C8.56024 10.8313 8.73494 10.4819 8.82229 10.2199C8.99699 9.87048 9.08434 9.60843 9.34639 9.34639C9.60843 9.08434 9.87048 8.90964 10.2199 8.82229C10.4819 8.73494 10.8313 8.64759 11.5301 8.56024C12.3163 8.56024 12.5783 8.56024 14.5 8.56024ZM14.5 7.25C12.491 7.25 12.3163 7.25 11.5301 7.25C10.744 7.25 10.2199 7.4247 9.78313 7.5994C9.34639 7.7741 8.90964 8.03615 8.47289 8.47289C8.03615 8.90964 7.86145 9.25904 7.5994 9.78313C7.4247 10.2199 7.33735 10.744 7.25 11.5301C7.25 12.3163 7.25 12.5783 7.25 14.5C7.25 16.509 7.25 16.6837 7.25 17.4699C7.25 18.256 7.4247 18.7801 7.5994 19.2169C7.7741 19.6536 8.03615 20.0904 8.47289 20.5271C8.90964 20.9639 9.25904 21.1386 9.78313 21.4006C10.2199 21.5753 10.744 21.6626 11.5301 21.75C12.3163 21.75 12.5783 21.75 14.5 21.75C16.4217 21.75 16.6837 21.75 17.4699 21.75C18.256 21.75 18.7801 21.5753 19.2169 21.4006C19.6536 21.2259 20.0904 20.9639 20.5271 20.5271C20.9639 20.0904 21.1386 19.741 21.4006 19.2169C21.5753 18.7801 21.6626 18.256 21.75 17.4699C21.75 16.6837 21.75 16.4217 21.75 14.5C21.75 12.5783 21.75 12.3163 21.75 11.5301C21.75 10.744 21.5753 10.2199 21.4006 9.78313C21.2259 9.34639 20.9639 8.90964 20.5271 8.47289C20.0904 8.03615 19.741 7.86145 19.2169 7.5994C18.7801 7.4247 18.256 7.33735 17.4699 7.25C16.6837 7.25 16.509 7.25 14.5 7.25Z" fill="white"/>
<path d="M14.5 10.744C12.4036 10.744 10.744 12.4036 10.744 14.5C10.744 16.5964 12.4036 18.256 14.5 18.256C16.5964 18.256 18.256 16.5964 18.256 14.5C18.256 12.4036 16.5964 10.744 14.5 10.744ZM14.5 16.9458C13.1898 16.9458 12.0542 15.8976 12.0542 14.5C12.0542 13.1898 13.1024 12.0542 14.5 12.0542C15.8102 12.0542 16.9458 13.1024 16.9458 14.5C16.9458 15.8102 15.8102 16.9458 14.5 16.9458Z" fill="white"/>
<path d="M18.3434 11.5301C18.8258 11.5301 19.2169 11.139 19.2169 10.6566C19.2169 10.1742 18.8258 9.78313 18.3434 9.78313C17.861 9.78313 17.4699 10.1742 17.4699 10.6566C17.4699 11.139 17.861 11.5301 18.3434 11.5301Z" fill="white"/>
<defs>
<radialGradient id="paint0_radial_106_71" cx="0" cy="0" r="1" gradientUnits="userSpaceOnUse" gradientTransform="translate(29.5834 0.589063) scale(66.9696)">
<stop stop-color="#F9ED32"/>
<stop offset="0.36" stop-color="#EE2A7B"/>
<stop offset="0.44" stop-color="#D22A8A"/>
<stop offset="0.6" stop-color="#8B2AB2"/>
<stop offset="0.83" stop-color="#1B2AF0"/>
<stop offset="0.88" stop-color="#002AFF"/>
</radialGradient>
</defs>
</svg>
